<svg xmlns="http://www.w3.org/2000/svg" viewBox="0 0 800 500">
  <defs><linearGradient id="g" x1="0" y1="0" x2="1" y2="1"><stop offset="0%" stop-color="#0d1117"/><stop offset="100%" stop-color="#1a2744"/></linearGradient></defs>
  <rect width="800" height="500" fill="url(#g)"/>
  <!-- Bookshelf -->
  <g>
    <rect x="80" y="100" width="90" height="260" rx="6" fill="#4338ca" opacity="0.85"/>
    <text x="125" y="240" text-anchor="middle" font-family="system-ui,sans-serif" font-size="11" fill="white" transform="rotate(-90,125,240)">The Great Gatsby</text>
    <rect x="185" y="120" width="75" height="240" rx="6" fill="#0369a1" opacity="0.85"/>
    <text x="222" y="240" text-anchor="middle" font-family="system-ui,sans-serif" font-size="11" fill="white" transform="rotate(-90,222,240)">Clean Code</text>
    <rect x="275" y="90" width="85" height="270" rx="6" fill="#065f46" opacity="0.85"/>
    <text x="317" y="240" text-anchor="middle" font-family="system-ui,sans-serif" font-size="11" fill="white" transform="rotate(-90,317,240)">Design Patterns</text>
    <rect x="375" y="110" width="70" height="250" rx="6" fill="#7c2d12" opacity="0.85"/>
    <text x="410" y="240" text-anchor="middle" font-family="system-ui,sans-serif" font-size="11" fill="white" transform="rotate(-90,410,240)">Dune</text>
    <rect x="460" y="95" width="80" height="265" rx="6" fill="#581c87" opacity="0.85"/>
    <text x="500" y="240" text-anchor="middle" font-family="system-ui,sans-serif" font-size="11" fill="white" transform="rotate(-90,500,240)">Laravel Up &amp; Running</text>
    <rect x="555" y="115" width="75" height="245" rx="6" fill="#1e3a5f" opacity="0.85"/>
    <text x="592" y="240" text-anchor="middle" font-family="system-ui,sans-serif" font-size="11" fill="white" transform="rotate(-90,592,240)">The Pragmatic Dev</text>
    <rect x="645" y="105" width="75" height="255" rx="6" fill="#7f1d1d" opacity="0.85"/>
    <text x="682" y="240" text-anchor="middle" font-family="system-ui,sans-serif" font-size="11" fill="white" transform="rotate(-90,682,240)">Eloquent JavaScript</text>
    <!-- Shelf board -->
    <rect x="60" y="360" width="680" height="12" rx="3" fill="#374151"/>
  </g>
  <text x="400" y="410" text-anchor="middle" font-family="system-ui,sans-serif" font-size="28" font-weight="bold" fill="white">EPUB Reader Dashboard</text>
  <text x="400" y="448" text-anchor="middle" font-family="system-ui,sans-serif" font-size="15" fill="#94a3b8">Your digital library, beautifully organised</text>
  <rect x="340" y="468" width="120" height="3" rx="2" fill="#6366f1"/>
</svg>
