<svg xmlns="http://www.w3.org/2000/svg" viewBox="0 0 800 500">
  <defs><linearGradient id="g" x1="0" y1="0" x2="1" y2="1"><stop offset="0%" stop-color="#0f0a00"/><stop offset="100%" stop-color="#1c1305"/></linearGradient></defs>
  <rect width="800" height="500" fill="url(#g)"/>
  <!-- Task detail panel -->
  <rect x="60" y="50" width="680" height="370" rx="16" fill="#111827"/>
  <rect x="60" y="50" width="680" height="55" rx="16" fill="#1f2937"/>
  <rect x="60" y="89" width="680" height="16" rx="0" fill="#1f2937"/>
  <text x="100" y="84" font-family="system-ui,sans-serif" font-size="16" font-weight="bold" fill="#f9fafb">Implement drag-and-drop card sorting</text>
  <rect x="620" y="62" width="90" height="26" rx="13" fill="#78350f"/>
  <text x="665" y="80" text-anchor="middle" font-family="system-ui,sans-serif" font-size="12" fill="#fcd34d">In Progress</text>
  <!-- Details -->
  <g font-family="system-ui,sans-serif">
    <text x="100" y="136" font-size="11" fill="#6b7280">ASSIGNEE</text>
    <text x="200" y="136" font-size="13" fill="#e5e7eb">Nakul Sri Kuber</text>
    <text x="100" y="165" font-size="11" fill="#6b7280">DUE DATE</text>
    <text x="200" y="165" font-size="13" fill="#fca5a5">Jul 15, 2026</text>
    <text x="100" y="194" font-size="11" fill="#6b7280">PRIORITY</text>
    <rect x="196" y="180" width="56" height="20" rx="10" fill="#7f1d1d"/>
    <text x="224" y="194" text-anchor="middle" font-size="12" fill="#fca5a5">High</text>
    <text x="100" y="230" font-size="11" fill="#6b7280">DESCRIPTION</text>
    <rect x="96" y="238" width="580" height="8" rx="4" fill="#1f2937"/>
    <rect x="96" y="254" width="520" height="8" rx="4" fill="#1f2937"/>
    <rect x="96" y="270" width="540" height="8" rx="4" fill="#1f2937"/>
    <text x="100" y="308" font-size="11" fill="#6b7280">CHECKLIST  3/5</text>
    <rect x="96" y="316" width="580" height="6" rx="3" fill="#374151"/>
    <rect x="96" y="316" width="348" height="6" rx="3" fill="#f59e0b"/>
    <text x="100" y="350" font-size="12" fill="#94a3b8">✅ Create task model &amp; migration</text>
    <text x="100" y="372" font-size="12" fill="#94a3b8">✅ Build Kanban board layout</text>
    <text x="100" y="394" font-size="12" fill="#6b7280">☐ Add drag-and-drop (in progress)</text>
  </g>
  <text x="400" y="455" text-anchor="middle" font-family="system-ui,sans-serif" font-size="22" font-weight="bold" fill="white">Task Detail &amp; Tracking</text>
  <rect x="340" y="475" width="120" height="3" rx="2" fill="#f59e0b"/>
</svg>
